<?xml version="1.0" encoding="UTF-8"?>
<svg id="Layer_1" data-name="Layer 1" xmlns="http://www.w3.org/2000/svg" viewBox="0 0 59.9 59.92"><defs><style>.cls-1{fill:#a8d3f0;}.cls-2{fill:#0079d3;}.cls-3,.cls-4{fill:none;}.cls-3{stroke:#0079d3;stroke-miterlimit:10;}</style></defs><title>build_plan_icons_lines 60PX</title><path class="cls-1" d="M16,25.08a7,7,0,0,0-7,7V55H23v-23A7,7,0,0,0,16,25.08Z"/><path class="cls-2" d="M49.26,36.85a4.47,4.47,0,0,1-4.13-2.75l-8-18.28L39,15l8,18.29a2.48,2.48,0,0,0,1.58,1.42,2.38,2.38,0,0,0,2.05-.33A2.72,2.72,0,0,0,51.44,31L41,7.32l1.87-.82L53.31,30.21a4.78,4.78,0,0,1-1.54,5.87A4.49,4.49,0,0,1,49.26,36.85Z"/><path class="cls-2" d="M25.43,29.57,24,28.16,39.87,11.39a4.42,4.42,0,0,0-.09-6.16,4.09,4.09,0,0,0-3-1.22,4.14,4.14,0,0,0-3,1.31c-16.17,17-17.34,18.14-17.39,18.18L15.05,22s1.47-1.4,17.28-18.07a6.2,6.2,0,0,1,8.89-.14,6.48,6.48,0,0,1,.13,9Z"/><path class="cls-2" d="M45,30.88,44.19,29a64,64,0,0,0,5.89-2.71l.47.73.94.72C51.31,28,51.14,28.2,45,30.88Z"/><circle class="cls-3" cx="16.01" cy="33.91" r="1.5"/><path class="cls-2" d="M26,56.79H24V31.86a8,8,0,0,0-16,0V56.79H6V31.86a10,10,0,0,1,20.06,0Z"/><polygon class="cls-2" points="44.03 44.01 41.99 44.01 41.99 38.54 46.85 33.5 48.32 34.91 44.03 39.37 44.03 44.01"/><polygon class="cls-2" points="58.05 44.01 56.01 44.01 56.01 39.38 51.8 34.91 53.29 33.51 58.05 38.57 58.05 44.01"/><rect class="cls-2" x="2" y="56.01" width="28.02" height="2"/><rect class="cls-4" width="60" height="60"/></svg>
