<?xml version="1.0" encoding="UTF-8"?>
<svg id="Layer_1" data-name="Layer 1" xmlns="http://www.w3.org/2000/svg" viewBox="0 0 60 60"><defs><style>.cls-1{fill:#0079d3;}.cls-2{fill:#a8d3f0;}.cls-3{fill:none;}</style></defs><title>build_plan_icons_lines 60PX</title><path class="cls-1" d="M13.07,13H2V1.94h11.1Zm-9-2.1H11V4H4.07Z"/><path class="cls-1" d="M13.07,58.05H2V47h11.1Zm-9-2.1H11v-6.9H4.07Z"/><path class="cls-1" d="M58,58H47V47H58Zm-9-2h7V49H49Z"/><path class="cls-1" d="M17.14,42.15l2.78-10.62L48.18,3.47a5.6,5.6,0,0,1,7.76,0,5.56,5.56,0,0,1,0,7.73L28,39.28Zm4.57-9.59-1.77,6.78,7-1.86L54.53,9.81a3.55,3.55,0,0,0,0-4.92,3.59,3.59,0,0,0-5,0Z"/><circle class="cls-1" cx="41.49" cy="52.5" r="1.5"/><circle class="cls-1" cx="33.82" cy="52.5" r="1.5"/><circle class="cls-1" cx="26.16" cy="52.5" r="1.5"/><circle class="cls-1" cx="18.49" cy="52.5" r="1.5"/><circle class="cls-1" cx="33.82" cy="7.49" r="1.5"/><circle class="cls-1" cx="26.16" cy="7.49" r="1.5"/><circle class="cls-1" cx="18.49" cy="7.49" r="1.5"/><rect class="cls-1" x="48.67" y="5.44" width="2" height="8.89" transform="translate(7.81 38.39) rotate(-45.51)"/><polygon class="cls-2" points="21.43 37.8 26.14 36.54 49.85 13 46.3 9.46 22.65 33.31 21.43 37.8"/><circle class="cls-1" cx="7.52" cy="41.57" r="1.5"/><circle class="cls-1" cx="7.52" cy="33.9" r="1.5"/><circle class="cls-1" cx="7.52" cy="26.24" r="1.5"/><circle class="cls-1" cx="7.52" cy="18.57" r="1.5"/><circle class="cls-1" cx="52.51" cy="41.57" r="1.5"/><circle class="cls-1" cx="52.51" cy="33.9" r="1.5"/><circle class="cls-1" cx="52.51" cy="26.24" r="1.5"/><rect class="cls-3" width="60" height="60"/></svg>
