<svg id="Layer_1" data-name="Layer 1" xmlns="http://www.w3.org/2000/svg" viewBox="0 0 60 60"><defs><style>.cls-1{fill:#0079d3;}.cls-2{fill:#a8d3f0;}.cls-3{fill:none;}</style></defs><title>build_plan_icons_lines 60PX</title><path class="cls-1" d="M30,58a8.2,8.2,0,1,1,8.2-8.2A8.21,8.21,0,0,1,30,58Zm0-14.4a6.2,6.2,0,1,0,6.2,6.2A6.21,6.21,0,0,0,30,43.6Z"/><path class="cls-1" d="M30.11,27.38l-.47-.24c-8.73-4.58-17.81-2.65-23.89-.22L5,25.06c6.36-2.54,15.84-4.56,25.1.07C39.29,20.54,48.7,22.5,55,25l-.73,1.86c-6-2.38-15-4.26-23.71.29Z"/><path class="cls-1" d="M39.75,41.67,38.51,40.1,54,27.92c0-.56.06-1.12.06-1.67C54,14,43.25,4,30,4S6,14,6,26.25c0,.5,0,1.08.07,1.67L21.52,40.1l-1.24,1.57L4.17,29l0-.42C4.06,27.75,4,26.94,4,26.25,4,12.88,15.68,2,30,2S56,12.88,56,26.25a21.62,21.62,0,0,1-.11,2.28l0,.43Z"/><rect class="cls-1" x="29" y="26.25" width="2" height="10.83"/><circle class="cls-2" cx="30" cy="49.8" r="4.43"/><rect class="cls-3" width="60" height="60"/></svg>