<?xml version="1.0" encoding="UTF-8"?>
<svg id="Layer_1" data-name="Layer 1" xmlns="http://www.w3.org/2000/svg" viewBox="0 0 60 60"><defs><style>.cls-1{fill:#0072c6;}</style></defs><title>build_plan_icons_lines 60PX2</title><path class="cls-1" d="M30,58a8.2,8.2,0,1,1,8.2-8.2A8.21,8.21,0,0,1,30,58Zm0-14.4a6.2,6.2,0,1,0,6.2,6.2A6.21,6.21,0,0,0,30,43.6Z"/><path class="cls-1" d="M30,2C15.68,2,4,12.88,4,26.25c0,.69,0,1.5.12,2.28l0,.42L20.28,41.67l1.24-1.57L6.08,27.92c0-.38,0-.75,0-1.11,5.92-2.31,14.56-4.08,23,0V37.08h2V26.93c8.4-4.19,17.06-2.47,23-.19,0,.39,0,.78,0,1.18L38.51,40.1l1.24,1.57L55.86,29l0-.43A21.62,21.62,0,0,0,56,26.25C56,12.88,44.35,2,30,2Zm.1,23.13c-8.76-4.38-17.7-2.81-24-.48C7,13.12,17.36,4,30,4s23,9.09,23.93,20.58C47.66,22.3,38.79,20.79,30.11,25.13Z"/></svg>