<?xml version="1.0" encoding="UTF-8"?>
<svg id="Layer_1" data-name="Layer 1" xmlns="http://www.w3.org/2000/svg" viewBox="0 0 60 60"><defs><style>.cls-1{fill:#0072c6;}</style></defs><title>build_plan_icons_lines 60PX2</title><path class="cls-1" d="M13.07,13H2V1.94h11.1Zm-9-2.1H11V4H4.07Z"/><path class="cls-1" d="M13.07,58.05H2V47h11.1Zm-9-2.1H11v-6.9H4.07Z"/><path class="cls-1" d="M58,58H47V47H58Zm-9-2h7V49H49Z"/><circle class="cls-1" cx="41.49" cy="52.5" r="1.5"/><circle class="cls-1" cx="33.82" cy="52.5" r="1.5"/><circle class="cls-1" cx="26.16" cy="52.5" r="1.5"/><circle class="cls-1" cx="18.49" cy="52.5" r="1.5"/><circle class="cls-1" cx="33.82" cy="7.49" r="1.5"/><circle class="cls-1" cx="26.16" cy="7.49" r="1.5"/><circle class="cls-1" cx="18.49" cy="7.49" r="1.5"/><path class="cls-1" d="M55.94,3.48a5.6,5.6,0,0,0-7.76,0L19.92,31.53,17.14,42.15,28,39.28,56,11.21A5.56,5.56,0,0,0,55.94,3.48Zm-29,34-7,1.86,1.77-6.78L46.39,8.07l5,4.9ZM54.53,9.81,52.8,11.55l-5-4.89,1.76-1.75a3.59,3.59,0,0,1,5,0A3.55,3.55,0,0,1,54.53,9.81Z"/><circle class="cls-1" cx="7.52" cy="41.57" r="1.5"/><circle class="cls-1" cx="7.52" cy="33.9" r="1.5"/><circle class="cls-1" cx="7.52" cy="26.24" r="1.5"/><circle class="cls-1" cx="7.52" cy="18.57" r="1.5"/><circle class="cls-1" cx="52.51" cy="41.57" r="1.5"/><circle class="cls-1" cx="52.51" cy="33.9" r="1.5"/><circle class="cls-1" cx="52.51" cy="26.24" r="1.5"/></svg>