<?xml version="1.0" encoding="UTF-8"?>
<svg id="Layer_1" data-name="Layer 1" xmlns="http://www.w3.org/2000/svg" viewBox="0 0 60 60"><defs><style>.cls-1{fill:#0072c6;}</style></defs><title>build_plan_icons_lines 60PX2</title><polygon class="cls-1" points="21.77 16.96 19.77 16.96 19.77 5.97 8.86 5.97 8.86 3.97 21.77 3.97 21.77 16.96"/><path class="cls-1" d="M52.06,18.23a27,27,0,0,0-11-10.94L42,5.53A28.94,28.94,0,0,1,53.82,17.29Z"/><path class="cls-1" d="M56.6,33.13l-2-.27a23.44,23.44,0,0,0,.21-3.11,25.18,25.18,0,0,0-1.23-7.67l1.89-.64a26.59,26.59,0,0,1,1.34,8.31A24.2,24.2,0,0,1,56.6,33.13Z"/><path class="cls-1" d="M29.45,57a28.19,28.19,0,0,1-8.34-1.32l.6-1.91A26.12,26.12,0,0,0,29.45,55a22.64,22.64,0,0,0,4.15-.38l.35,2A24.7,24.7,0,0,1,29.45,57Z"/><path class="cls-1" d="M16.75,54A28.33,28.33,0,0,1,5.24,42.52l0-.08a1.17,1.17,0,0,1-.23-.7H6.75L7,41.63a.83.83,0,0,0-.21-.44,1.31,1.31,0,0,1,.33.53,26.35,26.35,0,0,0,10.63,10.5Z"/><path class="cls-1" d="M3.43,38.26a23.38,23.38,0,0,1-1.36-8.51,27.58,27.58,0,0,1,1.18-8.29l1.9.6a25.83,25.83,0,0,0-1.08,7.69,21.5,21.5,0,0,0,1.23,7.8Z"/><path class="cls-1" d="M6.86,18.22,5.08,17.3A27.67,27.67,0,0,1,20.44,4l.66,1.88A25.63,25.63,0,0,0,6.86,18.22Z"/><polygon class="cls-1" points="44.13 53.99 37.62 47.65 39.02 46.22 44.12 51.19 56.55 38.85 57.95 40.27 44.13 53.99"/><path class="cls-1" d="M30,38.2A8.2,8.2,0,1,1,38.2,30,8.21,8.21,0,0,1,30,38.2Zm0-14.4A6.2,6.2,0,1,0,36.2,30,6.21,6.21,0,0,0,30,23.8Z"/></svg>