<?xml version="1.0" encoding="UTF-8"?>
<svg id="Layer_1" data-name="Layer 1" xmlns="http://www.w3.org/2000/svg" viewBox="0 0 59.9 59.92"><defs><style>.cls-1{fill:#0072c6;}</style></defs><title>build_plan_icons_lines 60PX2</title><circle class="cls-1" cx="16.01" cy="33.91" r="2"/><path class="cls-1" d="M53.49,33.72a5,5,0,0,0-.18-3.51L42.87,6.5h0a6.33,6.33,0,0,0-1.62-2.73,6.2,6.2,0,0,0-8.89.14C16.52,20.59,15.1,22,15.05,22l0,0A10,10,0,0,0,6,31.86V56H2v2H30V56H26V31.86a9.88,9.88,0,0,0-.35-2.56L37.56,16.79,45.13,34.1a4.24,4.24,0,0,0,.42.75L42,38.54V44h2V39.37l3-3.12a4.58,4.58,0,0,0,1,.42,4.48,4.48,0,0,0,3.77-.59,4,4,0,0,0,.64-.53L56,39.38V44h2V38.57ZM24,56H8V31.86a8,8,0,0,1,16,0Zm.83-28.8a10,10,0,0,0-7.09-5.06c1.82-1.88,6.09-6.32,16.06-16.83a4.14,4.14,0,0,1,3-1.31,4.09,4.09,0,0,1,3,1.22,4.42,4.42,0,0,1,.09,6.16ZM45,28.66,39.09,15.18l2.26-2.38a6.41,6.41,0,0,0,1.23-1.89L49.49,26.6C48.86,26.91,47.57,27.52,45,28.66Zm5.65,5.72a2.38,2.38,0,0,1-2.05.33A2.48,2.48,0,0,1,47,33.29l-1.21-2.76c2.38-1,3.74-1.67,4.53-2.06L51.44,31A2.72,2.72,0,0,1,50.63,34.38Z"/></svg>