<?xml version="1.0" encoding="UTF-8"?>
<svg viewBox="0 0 25 25" version="1.1" xmlns="http://www.w3.org/2000/svg">
  <path fill="#fff" d="M23.5595703,2.68554688 C23.7711599,3.05175964 23.964436,3.40169104 24.1394043,3.73535156 C24.3143726,4.06901208 24.466959,4.40673657 24.597168,4.74853516 C24.727377,5.09033374 24.8270667,5.44636859 24.8962402,5.81665039 C24.9654138,6.18693219 25,6.59179468 25,7.03125 C25,7.67415686 24.9165861,8.29467474 24.7497559,8.89282227 C24.5829256,9.49096979 24.3469254,10.0504531 24.041748,10.5712891 C23.7365707,11.092125 23.368329,11.5681945 22.9370117,11.9995117 C22.5056945,12.430829 22.029625,12.7990707 21.5087891,13.104248 C20.9879531,13.4094254 20.4284698,13.6454256 19.8303223,13.8122559 C19.2321747,13.9790861 18.6116569,14.0625 17.96875,14.0625 C17.7815746,14.0625 17.5923675,14.0543621 17.401123,14.0380859 C17.2098786,14.0218098 17.0206715,13.997396 16.8334961,13.9648438 L6.99462891,23.8037109 C6.60400195,24.1943379 6.15844977,24.4913727 5.65795898,24.6948242 C5.1574682,24.8982758 4.63460559,25 4.08935547,25 C3.52782922,25 2.99886316,24.8921723 2.50244141,24.6765137 C2.00601965,24.460855 1.57267438,24.1678892 1.20239258,23.7976074 C0.832110779,23.4273256 0.539144958,22.9939803 0.323486328,22.4975586 C0.107827698,22.0011368 0,21.4721708 0,20.9106445 C0,20.3653944 0.101724243,19.8425318 0.305175781,19.342041 C0.508627319,18.8415502 0.805662109,18.395998 1.19628906,18.0053711 L11.0351562,8.16650391 C11.002604,7.97932849 10.9781902,7.7901214 10.9619141,7.59887695 C10.9456379,7.40763251 10.9375,7.21842542 10.9375,7.03125 C10.9375,6.38834314 11.0209139,5.76782526 11.1877441,5.16967773 C11.3545744,4.57153021 11.5905746,4.01204687 11.895752,3.49121094 C12.2009293,2.970375 12.569171,2.49430554 13.0004883,2.06298828 C13.4318055,1.63167102 13.907875,1.26342926 14.4287109,0.958251953 C14.9495469,0.653074646 15.5090302,0.417074402 16.1071777,0.250244141 C16.7053253,0.0834138794 17.3258431,0 17.96875,0 C18.4082053,0 18.8130678,0.0345862427 19.1833496,0.103759766 C19.5536314,0.172933289 19.9096663,0.272623047 20.2514648,0.402832031 C20.5932634,0.533041016 20.9309879,0.68562738 21.2646484,0.860595703 C21.598309,1.03556403 21.9482404,1.22884009 22.3144531,1.44042969 L17.5048828,6.25 L18.75,7.49511719 L23.5595703,2.68554688 Z M17.96875,12.5 C18.7255897,12.5 19.4356249,12.3555516 20.098877,12.0666504 C20.762129,11.7777492 21.3399227,11.3871281 21.8322754,10.8947754 C22.3246281,10.4024227 22.7152492,9.82462897 23.0041504,9.16137695 C23.2930516,8.49812494 23.4375,7.78808972 23.4375,7.03125 C23.4375,6.43717151 23.3398447,5.86344678 23.1445312,5.31005859 L18.75,9.69238281 L15.3076172,6.25 L19.6899414,1.85546875 C19.1365532,1.66015527 18.5628285,1.5625 17.96875,1.5625 C17.2119103,1.5625 16.5018751,1.70694843 15.838623,1.99584961 C15.175371,2.28475079 14.5975773,2.67537189 14.1052246,3.16772461 C13.6128719,3.66007733 13.2222508,4.23787103 12.9333496,4.90112305 C12.6444484,5.56437506 12.5,6.27441028 12.5,7.03125 C12.5,7.31608215 12.5244138,7.59277209 12.5732422,7.86132812 C12.6220706,8.12988416 12.6790361,8.39843616 12.7441406,8.66699219 L2.30712891,19.1162109 C2.07112512,19.3522147 1.88802148,19.6248357 1.7578125,19.934082 C1.62760352,20.2433284 1.5625,20.5688459 1.5625,20.9106445 C1.5625,21.2524431 1.629638,21.5779607 1.76391602,21.887207 C1.89819403,22.1964534 2.07926318,22.4650054 2.30712891,22.6928711 C2.53499463,22.9207368 2.80354663,23.101806 3.11279297,23.236084 C3.42203931,23.370362 3.74755688,23.4375 4.08935547,23.4375 C4.43115405,23.4375 4.75667163,23.3723965 5.06591797,23.2421875 C5.37516431,23.1119785 5.64778528,22.9288749 5.88378906,22.6928711 L16.3330078,12.2558594 C16.6015638,12.3209639 16.8701158,12.3779294 17.1386719,12.4267578 C17.4072279,12.4755862 17.6839178,12.5 17.96875,12.5 Z"/>
</svg>
