<?xml version="1.0" encoding="UTF-8"?>
<svg width="16" height="16" viewBox="0 0 16 16" version="1.1" xmlns="http://www.w3.org/2000/svg">
  <path fill="#333" d="M12.5,6 C12.9843774,6 13.4388,6.09244699 13.8632812,6.27734375 C14.2877625,6.46224051 14.6575505,6.71223801 14.9726562,7.02734375 C15.287762,7.34244949 15.5377595,7.71223746 15.7226562,8.13671875 C15.907553,8.56120004 16,9.01562258 16,9.5 C16,9.98437742 15.907553,10.4388 15.7226562,10.8632812 C15.5377595,11.2877625 15.287762,11.6575505 14.9726562,11.9726562 C14.6575505,12.287762 14.2877625,12.5377595 13.8632812,12.7226562 C13.4388,12.907553 12.9843774,13 12.5,13 L8.5,13 C8.01562258,13 7.56120004,12.907553 7.13671875,12.7226562 C6.71223746,12.5377595 6.34244949,12.287762 6.02734375,11.9726562 C5.71223801,11.6575505 5.46224051,11.2877625 5.27734375,10.8632812 C5.09244699,10.4388 5,9.98437742 5,9.5 C5,9.01562258 5.09244699,8.56120004 5.27734375,8.13671875 C5.46224051,7.71223746 5.71223801,7.34244949 6.02734375,7.02734375 C6.34244949,6.71223801 6.71223746,6.46224051 7.13671875,6.27734375 C7.56120004,6.09244699 8.01562258,6 8.5,6 L9,6 L9,7 C8.60416469,7 8.22526223,7.04557246 7.86328125,7.13671875 C7.50130027,7.22786504 7.18229305,7.37369691 6.90625,7.57421875 C6.63020695,7.77474059 6.41015707,8.03255051 6.24609375,8.34765625 C6.08203043,8.66276199 6,9.04687273 6,9.5 C6,9.84375172 6.06640559,10.1666652 6.19921875,10.46875 C6.33203191,10.7708348 6.51171762,11.0351551 6.73828125,11.2617188 C6.96484488,11.4882824 7.22916516,11.6679681 7.53125,11.8007812 C7.83333484,11.9335944 8.15624828,12 8.5,12 L12.5,12 C12.8437517,12 13.1666652,11.9335944 13.46875,11.8007812 C13.7708348,11.6679681 14.0351551,11.4882824 14.2617188,11.2617188 C14.4882824,11.0351551 14.6679681,10.7708348 14.8007812,10.46875 C14.9335944,10.1666652 15,9.84375172 15,9.5 C15,9.04687273 14.9179696,8.66276199 14.7539062,8.34765625 C14.5898429,8.03255051 14.369793,7.77474059 14.09375,7.57421875 C13.817707,7.37369691 13.4986997,7.22786504 13.1367188,7.13671875 C12.7747378,7.04557246 12.3958353,7 12,7 L12,6 L12.5,6 Z M7,10 L7,9 C7.39583531,9 7.77473777,8.95442754 8.13671875,8.86328125 C8.49869973,8.77213496 8.81770695,8.62630309 9.09375,8.42578125 C9.36979305,8.22525941 9.58984293,7.96744949 9.75390625,7.65234375 C9.91796957,7.33723801 10,6.95312727 10,6.5 C10,6.15624828 9.93359441,5.83333484 9.80078125,5.53125 C9.66796809,5.22916516 9.48828238,4.96484488 9.26171875,4.73828125 C9.03515512,4.51171762 8.77083484,4.33203191 8.46875,4.19921875 C8.16666516,4.06640559 7.84375172,4 7.5,4 L3.5,4 C3.15624828,4 2.83333484,4.06640559 2.53125,4.19921875 C2.22916516,4.33203191 1.96484488,4.51171762 1.73828125,4.73828125 C1.51171762,4.96484488 1.33203191,5.22916516 1.19921875,5.53125 C1.06640559,5.83333484 1,6.15624828 1,6.5 C1,6.95312727 1.08203043,7.33723801 1.24609375,7.65234375 C1.41015707,7.96744949 1.63020695,8.22525941 1.90625,8.42578125 C2.18229305,8.62630309 2.50130027,8.77213496 2.86328125,8.86328125 C3.22526223,8.95442754 3.60416469,9 4,9 L4,10 L3.5,10 C3.01562258,10 2.56120004,9.90755301 2.13671875,9.72265625 C1.71223746,9.53775949 1.34244949,9.28776199 1.02734375,8.97265625 C0.712238008,8.65755051 0.462240508,8.28776254 0.27734375,7.86328125 C0.0924469922,7.43879996 0,6.98437742 0,6.5 C0,6.01562258 0.0924469922,5.56120004 0.27734375,5.13671875 C0.462240508,4.71223746 0.712238008,4.34244949 1.02734375,4.02734375 C1.34244949,3.71223801 1.71223746,3.46224051 2.13671875,3.27734375 C2.56120004,3.09244699 3.01562258,3 3.5,3 L7.5,3 C7.98437742,3 8.43879996,3.09244699 8.86328125,3.27734375 C9.28776254,3.46224051 9.65755051,3.71223801 9.97265625,4.02734375 C10.287762,4.34244949 10.5377595,4.71223746 10.7226562,5.13671875 C10.907553,5.56120004 11,6.01562258 11,6.5 C11,6.98437742 10.907553,7.43879996 10.7226562,7.86328125 C10.5377595,8.28776254 10.287762,8.65755051 9.97265625,8.97265625 C9.65755051,9.28776199 9.28776254,9.53775949 8.86328125,9.72265625 C8.43879996,9.90755301 7.98437742,10 7.5,10 L7,10 Z"/>
</svg>
