<?xml version="1.0" encoding="UTF-8"?>
<svg xmlns="http://www.w3.org/2000/svg" viewBox="-1.25 0 16 16">
  <path fill="#fff"
        d="M13.71,12.57v1.14H9.14A2.18,2.18,0,0,1,9,14.6a2.13,2.13,0,0,1-.49.73,2.36,2.36,0,0,1-.72.49A2.25,2.25,0,0,1,6.9,16,2.21,2.21,0,0,1,6,15.82,2.28,2.28,0,0,1,4.75,14.6a2.18,2.18,0,0,1-.18-0.89H0V12.57H1.14V5.71A5.4,5.4,0,0,1,1.35,4.2a6.18,6.18,0,0,1,.57-1.37,5.92,5.92,0,0,1,.9-1.16A6.2,6.2,0,0,1,4,.78,5.51,5.51,0,0,1,5.34.21a5.61,5.61,0,0,1,3,0,5.44,5.44,0,0,1,1.4.57,6.27,6.27,0,0,1,1.16.89,5.87,5.87,0,0,1,.89,1.16,5.62,5.62,0,0,1,.78,2.88v6.86h1.14Zm-2.28,0V5.71a4.38,4.38,0,0,0-.36-1.77,4.45,4.45,0,0,0-1-1.45,4.61,4.61,0,0,0-1.45-1,4.56,4.56,0,0,0-3.55,0,4.73,4.73,0,0,0-1.45,1,4.58,4.58,0,0,0-1,1.45,4.38,4.38,0,0,0-.36,1.77v6.86h9.17ZM6.86,14.86a1,1,0,0,0,.44-0.09,1.15,1.15,0,0,0,.37-0.25,1.13,1.13,0,0,0,.24-0.36A1.1,1.1,0,0,0,8,13.71H5.71a1.1,1.1,0,0,0,.09.45,1.23,1.23,0,0,0,.61.61A1.13,1.13,0,0,0,6.86,14.86Z"/>
</svg>
