<?xml version="1.0" encoding="UTF-8"?>
<svg xmlns="http://www.w3.org/2000/svg" viewBox="0 0 15 15">
    <title>EmulatorMBv3</title>
    <path d="M9.5.28a7.2,7.2,0,0,1,2.23,1A7.8,7.8,0,0,1,13.47,3,7.85,7.85,0,0,1,14.6,5.08a7.5,7.5,0,0,1,.13,4.41,8,8,0,0,1-.75,1.8,8.2,8.2,0,0,1-1.17,1.52A8.2,8.2,0,0,1,11.29,14a8,8,0,0,1-1.8.75,7.47,7.47,0,0,1-4,0A8,8,0,0,1,3.71,14a8.2,8.2,0,0,1-1.52-1.17A8.2,8.2,0,0,1,1,11.29,8.07,8.07,0,0,1,.27,9.5a7.51,7.51,0,0,1,0-4A7.72,7.72,0,0,1,1,3.69,7.32,7.32,0,0,1,2.26,2.14,7.4,7.4,0,0,1,3.88.94h-2V0H5.62V3.75H4.69V1.57a6.86,6.86,0,0,0-1.55,1A6.77,6.77,0,0,0,1.2,5.66a6.67,6.67,0,0,0,0,3.58,7,7,0,0,0,.66,1.57,6.67,6.67,0,0,0,2.36,2.36,7,7,0,0,0,1.57.66,6.59,6.59,0,0,0,1.74.23,6.7,6.7,0,0,0,1.74-.23,7,7,0,0,0,1.57-.66,6.67,6.67,0,0,0,2.36-2.36,7,7,0,0,0,.66-1.57,6.49,6.49,0,0,0-1.12-5.71A6.71,6.71,0,0,0,11.2,2.08a6.43,6.43,0,0,0-1.95-.9Z"/>
</svg>