<?xml version="1.0" encoding="UTF-8"?>
<svg xmlns="http://www.w3.org/2000/svg" viewBox="0 0 16 16">
  <path fill="#fff" d="M8,0a7.86,7.86,0,0,1,2.12.29,7.78,7.78,0,0,1,1.92.8A8,8,0,0,1,14.91,4a7.78,7.78,0,0,1,.8,1.92,7.89,7.89,0,0,1,0,4.24,7.78,7.78,0,0,1-.8,1.92A8,8,0,0,1,12,14.91a7.78,7.78,0,0,1-1.92.8,7.89,7.89,0,0,1-4.24,0A7.78,7.78,0,0,1,4,14.91,8,8,0,0,1,.29,5.84,7.78,7.78,0,0,1,1.09,4,8,8,0,0,1,4,1.09,8.1,8.1,0,0,1,8,0ZM1,8a7,7,0,0,0,.29,2H4.12C4.12,9.67,4,9.33,4,9s0-.66,0-1V7a3.77,3.77,0,0,1,.09-1H1.29A7,7,0,0,0,1,8ZM5.71,1.38A6.57,6.57,0,0,0,4.45,2a6.92,6.92,0,0,0-1.11.82,7,7,0,0,0-.94,1A6.85,6.85,0,0,0,1.68,5h2.6c0.06-.31.14-0.63,0.22-1a8.52,8.52,0,0,1,.3-0.94,9.1,9.1,0,0,1,.4-0.9A6.36,6.36,0,0,1,5.71,1.38ZM1.68,11a6.85,6.85,0,0,0,.72,1.19,7,7,0,0,0,.94,1A6.92,6.92,0,0,0,4.45,14a6.57,6.57,0,0,0,1.26.59,6.36,6.36,0,0,1-.51-0.83,9.1,9.1,0,0,1-.4-0.9A8.52,8.52,0,0,1,4.5,12c-0.08-.32-0.16-0.64-0.22-0.95Zm9.19-1c0-.33.07-0.67,0.09-1s0-.66,0-1V7a8.44,8.44,0,0,0-.09-1H5.13c0,0.33-.07.67-0.09,1S5,7.66,5,8V9a3.77,3.77,0,0,0,.09,1h5.74ZM8,1a1.28,1.28,0,0,0-.71.21,2.5,2.5,0,0,0-.62.56,3.93,3.93,0,0,0-.5.77C6,2.83,5.89,3.12,5.77,3.42S5.56,4,5.48,4.28L5.3,5h5.4l-0.18-.72C10.44,4,10.34,3.72,10.23,3.42a7.69,7.69,0,0,0-.4-0.88,3.93,3.93,0,0,0-.5-0.77,2.5,2.5,0,0,0-.62-0.56A1.28,1.28,0,0,0,8,1ZM8,15a1.28,1.28,0,0,0,.71-0.21,2.5,2.5,0,0,0,.62-0.56,3.93,3.93,0,0,0,.5-0.77c0.15-.29.28-0.58,0.4-0.88s0.21-.59.29-0.86L10.7,11H5.3l0.18,0.72c0.08,0.27.18,0.56,0.29,0.86a7.69,7.69,0,0,0,.4.88,3.93,3.93,0,0,0,.5.77,2.5,2.5,0,0,0,.62.56A1.28,1.28,0,0,0,8,15ZM14.32,5a6.85,6.85,0,0,0-.72-1.19,7,7,0,0,0-.94-1A6.92,6.92,0,0,0,11.55,2a6.57,6.57,0,0,0-1.26-.59,6.36,6.36,0,0,1,.51.83,9.1,9.1,0,0,1,.4.9,8.52,8.52,0,0,1,.3.94c0.08,0.32.16,0.64,0.22,1Zm-4,9.62A6.57,6.57,0,0,0,11.55,14a6.92,6.92,0,0,0,1.11-.82,7,7,0,0,0,.94-1A6.85,6.85,0,0,0,14.32,11h-2.6c-0.06.31-.14,0.63-0.22,0.95a8.52,8.52,0,0,1-.3.94,9.1,9.1,0,0,1-.4.9,6.36,6.36,0,0,1-.51.83h0ZM15,8a7,7,0,0,0-.29-2H11.88c0,0.33.07,0.67,0.09,1s0,0.66,0,1V9a8.44,8.44,0,0,1-.09,1h2.83A7,7,0,0,0,15,8Z"/>
</svg>
