<?xml version="1.0" encoding="UTF-8"?>
<svg xmlns="http://www.w3.org/2000/svg" viewBox="0 0 16 16">
  <path fill="#fff" d="M14,7.72V8.28l2,1.27-1.25,3L12.42,12l-0.4.4,0.54,2.33L9.55,16,8.28,14H7.72L6.45,16l-3-1.25L4,12.42,3.6,12l-2.33.54L0,9.55,2,8.28V7.72L0,6.45l1.25-3L3.58,4,4,3.6,3.44,1.25,6.45,0,7.72,2H8.28L9.55,0l3,1.25L12,3.58c0.14,0.13.27,0.26,0.4,0.4l2.33-.54,1.25,3Zm-0.91,1V7.23L14.9,6.1,14.22,4.46,12.09,5a6.6,6.6,0,0,0-.49-0.55A6.85,6.85,0,0,0,11,3.95l0.5-2.13L9.9,1.1,8.74,3H7.25L6.1,1.1l-1.64.68L5,3.91a6.6,6.6,0,0,0-.55.49,6.85,6.85,0,0,0-.5.56l-2.13-.5L1.1,6.1,3,7.26V8.75L1.1,9.9l0.68,1.64L3.91,11a6.6,6.6,0,0,0,.49.55,6.85,6.85,0,0,0,.56.5l-0.5,2.13L6.1,14.86,7.26,13H8.75L9.9,14.9l1.64-.68L11,12.09a6.6,6.6,0,0,0,.55-0.49,6.85,6.85,0,0,0,.5-0.56l2.13,0.5L14.9,9.9ZM8,5.05a2.78,2.78,0,0,1,1.15.23,2.92,2.92,0,0,1,1.57,1.57,2.72,2.72,0,0,1,.05,2.3A2.92,2.92,0,0,1,9.2,10.72a2.84,2.84,0,0,1-2.35.05A2.92,2.92,0,0,1,5.28,9.15,2.78,2.78,0,0,1,5.05,8a2.78,2.78,0,0,1,.23-1.15A2.92,2.92,0,0,1,6.85,5.28,2.78,2.78,0,0,1,8,5.05Zm0,5A2.06,2.06,0,0,0,9.91,8.79a2.13,2.13,0,0,0,0-1.62,2,2,0,0,0-1.1-1.1,2.13,2.13,0,0,0-1.62,0,2,2,0,0,0-1.1,1.1,2.13,2.13,0,0,0,0,1.62A2.14,2.14,0,0,0,8,10.07v0Z"/>
</svg>
