<?xml version="1.0" encoding="UTF-8"?>
<svg xmlns="http://www.w3.org/2000/svg" viewBox="0 0 15 15">
    <title>EmulatorMBv3</title>
    <path d="M13.44,6a1.74,1.74,0,0,1,.61.11,1.56,1.56,0,0,1,.5.33,1.51,1.51,0,0,1,.33.49,1.58,1.58,0,0,1,.12.61,1.53,1.53,0,0,1-.12.6,1.72,1.72,0,0,1-.33.51L9,14.26,6,15l.73-2.94,5.61-5.6a1.45,1.45,0,0,1,.5-.33A1.52,1.52,0,0,1,13.44,6ZM13.84,8a.54.54,0,0,0,.16-.4.5.5,0,0,0-.16-.39.57.57,0,0,0-.4-.15.66.66,0,0,0-.21,0,.44.44,0,0,0-.18.12l-5.41,5.4-.26,1.06,1-.27Z"/>
    <path d="M5,11H6L5,12H1.29L0,10.72V1A1,1,0,0,1,.08.62,1,1,0,0,1,.29.3,1,1,0,0,1,.61.09.85.85,0,0,1,1,0H11a.85.85,0,0,1,.39.08,1,1,0,0,1,.32.21,1,1,0,0,1,.21.32A1,1,0,0,1,12,1V5L11,6V1H10V6H2V1H1V10.3l.71.71H2V7H9V8L8,9V8H3v3H4V9H5ZM3,5H9V1H3Z"/>
</svg>