<?xml version="1.0" encoding="UTF-8"?>
<svg xmlns="http://www.w3.org/2000/svg" viewBox="0 0 14 16">
  <path fill="#fff" d="M9.39,9.4a6.57,6.57,0,0,1,1.92,1A7,7,0,0,1,12.76,12a6.83,6.83,0,0,1,.92,1.9A7.36,7.36,0,0,1,14,16H13a6,6,0,0,0-.46-2.38,5.74,5.74,0,0,0-3.16-3.16A6,6,0,0,0,7,10a6.13,6.13,0,0,0-1.61.21,6,6,0,0,0-4.18,4.23A6.13,6.13,0,0,0,1,16H0a7,7,0,0,1,1.26-4,6.69,6.69,0,0,1,1.45-1.51,7.07,7.07,0,0,1,1.91-1,5.1,5.1,0,0,1-1.09-.8,4.82,4.82,0,0,1-.82-1,5.57,5.57,0,0,1-.53-1.23A5,5,0,0,1,2,5a4.92,4.92,0,0,1,.39-2A5,5,0,0,1,5.05.39,5.07,5.07,0,0,1,9,.39a5,5,0,0,1,2.66,2.66A4.92,4.92,0,0,1,12,5a5,5,0,0,1-.18,1.34,5.23,5.23,0,0,1-.53,1.21,5.13,5.13,0,0,1-.82,1A5,5,0,0,1,9.39,9.4ZM3,5A4,4,0,0,0,4.18,7.82a4,4,0,0,0,5.64,0,3.86,3.86,0,0,0,.86-1.27,3.91,3.91,0,0,0,0-3.1,3.86,3.86,0,0,0-.86-1.27,4,4,0,0,0-5.64,0A4,4,0,0,0,3,5Z"/>
</svg>
