<svg xmlns="http://www.w3.org/2000/svg" viewBox="0 0 50 50" width="100%" height="100%" fill="#fff">
  <g>
    <path d="M19.8 39.4h10.6v3.4H19.8zM23.1 50H27l3.3-3.5H19.8z" fill="rgb(122, 122, 122)"/>
    <path d="M41.2 14.7v-.3C41.2 6.7 34.6.3 26.5.2c-.2-.3-4.8.1-4.8.1-7.3.9-13 7-13 14.1 0 .2-.8 5.8 4.9 10.5 2.6 2.3 5.3 8.5 5.7 10.3l.3.6h10.6l.3-.6c.4-1.8 3.2-8 5.7-10.2 5.7-4.8 5-10.1 5-10.3z" fill="rgb(104, 33, 122)"/>
    <path d="M30.4 18.1l-1.7 10.6h-2V18.2l.1-.2c3.8 0 3.3-3.5 3.3-3.5H19.8v.3c0 .8.3 3.3 3.5 3.3v10.6h-2l-.5-2.5-1.3-8.1c-2.3 0-3-1.5-3.3-2.6v-1.4c0-2.8 3.2-3.1 3.2-3.1h11s3.5.4 3.5 3.5c-.1 0 0 3.6-3.5 3.6z"/>
    <path opacity=".15" d="M41.2 16.4c.1-1 0-1.7 0-1.8v-.3C41.2 6.6 34.6.2 26.5.1c-.2-.3-4.8.1-4.8.1-7.3.9-13 7-13 14.1 0 .1-.1.9 0 2.1h32.5z"/>
  </g>
</svg>
