<svg viewBox="64.048 -1062.413 193.4 114.42" xmlns="http://www.w3.org/2000/svg">
  <g>
    <path fill="#3176BC"
          d="M254.908-1005.695c-3.504-8.302-10.753-15.332-20.133-19.63-4.324-14.539-16.426-29.079-34.475-29.079-.575 0-1.156.015-1.741.044-7.528-5.398-14.84-8.029-22.287-8.029-4.489 0-9.076.991-13.674 2.952-3.405-1.785-7.312-2.715-11.487-2.715-9.237 0-17.998 4.266-23.406 9.264a23.086 23.086 0 0 0-5.304-.604c-13.779 0-27.433 11.384-31.124 25.186-11.877 4.309-20.551 12.139-24.624 22.323-3.952 9.882-3.083 20.93 2.384 30.313 5.43 9.319 14.928 14.883 25.408 14.883 4.021 0 7.896-.821 11.431-2.402 6.372 5.793 14.571 9.256 22.334 9.256 2.707 0 5.299-.4 7.749-1.193 6.286 5.17 15.922 7.109 23.74 7.109 9.226 0 17.242-2.437 22.557-6.693 3.444 1.594 7.237 2.421 11.194 2.42h.003c9.899 0 20.127-5.274 25.713-12.607 3.116 1.277 6.396 1.938 9.712 1.938h.003c10.816-.002 20.86-7.063 25.589-17.989 3.604-8.33 3.756-16.886.438-24.747z"/>
    <path fill="#fff"
      d="M118.612-995.661h-9.739c-1.215-5.369-6.015-9.394-11.744-9.394-6.644 0-12.049 5.406-12.049 12.05 0 6.645 5.405 12.051 12.049 12.051 5.696 0 10.471-3.979 11.72-9.3h9.764a2.245 2.245 0 0 1 2.242 2.242v33.091a29.66 29.66 0 0 0 5.408.906v-33.997c0-4.217-3.432-7.649-7.651-7.649zm-21.483 9.708c-3.887 0-7.049-3.163-7.049-7.051 0-3.888 3.162-7.05 7.049-7.05s7.049 3.163 7.049 7.05c0 3.888-3.162 7.051-7.049 7.051zm60.294-7.315v-11.256c0-4.218-3.432-7.648-7.648-7.648H132.66a2.245 2.245 0 0 1-2.242-2.243v-40.697a31.657 31.657 0 0 0-2.712 2.223 22.18 22.18 0 0 0-2.696-.46v38.934c0 4.219 3.432 7.651 7.65 7.651h17.115a2.243 2.243 0 0 1 2.24 2.24v11.256c-5.344 1.232-9.344 6.02-9.344 11.733 0 6.644 5.404 12.05 12.048 12.05s12.049-5.406 12.049-12.05c0-5.713-4.001-10.501-9.345-11.733zm-2.704 18.784c-3.886 0-7.048-3.163-7.048-7.05 0-3.888 3.162-7.051 7.048-7.051 3.887 0 7.049 3.163 7.049 7.051 0 3.887-3.163 7.05-7.049 7.05zm76.442-30.02c0-6.644-5.404-12.049-12.047-12.049-6.644 0-12.049 5.405-12.049 12.049 0 5.696 3.978 10.47 9.297 11.72v2.231a2.243 2.243 0 0 1-2.24 2.242h-21.668v-38.774c0-4.218-3.431-7.65-7.649-7.65h-11.743c-1.215-5.368-6.014-9.392-11.743-9.392-6.644 0-12.049 5.406-12.049 12.05 0 6.644 5.405 12.048 12.049 12.048 5.696 0 10.471-3.978 11.72-9.298h11.767a2.243 2.243 0 0 1 2.241 2.242v74.031c1.75.423 3.559.672 5.408.737v-30.585h21.668c4.219 0 7.65-3.432 7.65-7.65v-2.207c5.366-1.216 9.388-6.015 9.388-11.745zm-69.843-20.525c-3.887 0-7.049-3.162-7.049-7.048 0-3.887 3.162-7.05 7.049-7.05s7.049 3.163 7.049 7.05c0 3.886-3.162 7.048-7.049 7.048zm57.796 27.574c-3.887 0-7.049-3.163-7.049-7.05s3.162-7.049 7.049-7.049c3.886 0 7.047 3.162 7.047 7.049s-3.161 7.05-7.047 7.05z"/>
  </g>
</svg>
