<svg viewBox="0 0 24 24" xmlns="http://www.w3.org/2000/svg">
  <g>
    <path d="M19.8 10.8c1 4.3-1.6 8.6-5.9 9.6s-8.5-1.5-9.6-5.8S6 6 10.3 5c4.2-1 8.5 1.6 9.5 5.8z" fill="rgb(89, 180, 217)"/>
    <path d="M11 15.9c0-1.2-1-2.1-2.1-2.1h-.4c.3-1.1-.4-2.3-1.5-2.5H4.4c-.5 2.4.2 4.9 1.9 6.8h2.6c1.2-.1 2.1-1 2.1-2.2zm2.6-8.7v.4h-.9c-1.2 0-2.2 1-2.2 2.2s1 2.2 2.2 2.2H20c-.2-2.7-1.8-5-4.1-6.2H15c-.8 0-1.4.6-1.4 1.4zm6.4 6.3h-4.3c-1 0-1.8.8-1.8 1.8 0 .3.1.6.2.9-1 .3-1.4 1.3-1.2 2.2.2.8.9 1.2 1.7 1.2h1.2c2.3-1.2 3.9-3.5 4.2-6.1z" opacity=".5" fill="#fff"/>
    <path d="M3.2 7.4c-.1 0-.2-.1-.2-.2C3 5.7 1.8 4.4.2 4.4c-.1.1-.2-.1-.2-.2S.1 4 .2 4C1.8 4 3 2.7 3 1.2c0-.2.1-.2.2-.2s.3 0 .3.2C3.5 2.7 4.7 4 6.3 4c.1 0 .2.1.2.2s-.1.2-.2.2c-1.5 0-2.8 1.2-2.8 2.8 0 .1-.1.2-.3.2z" fill="rgb(184, 212, 50)"/>
    <path d="M20.3 23c-.1 0-.1 0-.1-.1 0-.9-.8-1.6-1.7-1.6-.1 0-.1 0-.1-.1s0-.1.1-.1c.9 0 1.6-.7 1.7-1.6 0-.1 0-.1.1-.1s.1 0 .1.1c0 .9.8 1.6 1.7 1.6.1 0 .1 0 .1.1s0 .1-.1.1c-.9 0-1.6.7-1.7 1.6.1.1 0 .1-.1.1z" fill="#26bcee"/>
    <path d="M23.7 5.6c-.8-1.2-2.6-1.5-5.5-.8-.9.2-1.8.5-2.6.8.5.3 1.1.6 1.5 1 .5-.1 1-.3 1.4-.4.8-.2 1.5-.3 2.3-.3.9 0 1.4.2 1.6.5.3.5 0 1.7-1.6 3.6-.3.3-.6.7-1 1-1.8 1.7-3.8 3.3-6 4.6-2.1 1.3-4.4 2.4-6.8 3.1-2.9.9-4.9.9-5.3.2s.4-2.5 2.6-4.6c-.1-.6-.2-1.2-.2-1.8C.7 15.6-.4 18.3.4 19.7c.6.8 1.6 1.2 3 1.2 1.7-.1 3.5-.4 5.1-1.1 2.1-.8 4.1-1.8 6-3s3.7-2.5 5.4-4c.7-.6 1.3-1.2 1.9-1.9 2-2.3 2.6-4.1 1.9-5.3z" fill="rgb(242, 242, 242)"/>
  </g>
</svg>
