<svg viewBox="0 0 50 50" xmlns="http://www.w3.org/2000/svg" width="100%" height="100%">
  <g>
    <path fill="rgb(184, 212, 50)" d="M39.063 18.75c1.514 0 2.934.289 4.26.867s2.482 1.359 3.467 2.344 1.766 2.14 2.344 3.467.866 2.746.866 4.26-.289 2.934-.867 4.26-1.359 2.482-2.344 3.467-2.14 1.766-3.467 2.344-2.747.867-4.26.867h-12.5c-1.514 0-2.934-.289-4.26-.867s-2.482-1.359-3.467-2.344-1.766-2.14-2.344-3.467-.867-2.747-.867-4.26.289-2.934.867-4.26 1.359-2.482 2.344-3.467 2.14-1.766 3.467-2.344 2.747-.867 4.26-.867h1.563v3.125c-1.237 0-2.421.142-3.552.427s-2.128.741-2.991 1.367-1.55 1.432-2.063 2.417-.769 2.185-.769 3.601c0 1.074.208 2.083.623 3.027s.977 1.77 1.685 2.478 1.534 1.27 2.478 1.685 1.953.623 3.027.623h12.5c1.074 0 2.083-.208 3.027-.623s1.77-.977 2.478-1.685 1.27-1.534 1.685-2.478.623-1.953.623-3.027c0-1.416-.256-2.616-.769-3.601s-1.2-1.79-2.063-2.417-1.86-1.082-2.991-1.367-2.315-.427-3.552-.427V18.75h1.562z"/>
    <path fill="rgb(89, 180, 217)" d="M21.875 31.25v-3.125c1.237 0 2.421-.142 3.552-.427s2.128-.741 2.991-1.367 1.55-1.432 2.063-2.417.769-2.185.769-3.601c0-1.074-.208-2.083-.623-3.027s-.977-1.77-1.685-2.478-1.534-1.27-2.478-1.685-1.952-.623-3.026-.623h-12.5c-1.074 0-2.083.208-3.027.623s-1.77.977-2.478 1.685-1.27 1.534-1.685 2.478-.623 1.953-.623 3.027c0 1.416.256 2.616.769 3.601s1.2 1.79 2.063 2.417 1.86 1.082 2.991 1.367 2.315.427 3.552.427v3.125h-1.563c-1.514 0-2.934-.289-4.26-.867S4.195 29.024 3.21 28.04 1.444 25.9.866 24.573 0 21.826 0 20.313s.289-2.934.867-4.26 1.359-2.482 2.344-3.467 2.14-1.766 3.467-2.344 2.747-.867 4.26-.867h12.5c1.514 0 2.934.289 4.26.867s2.482 1.359 3.467 2.344c.985.985 1.766 2.14 2.344 3.467s.867 2.747.867 4.26-.289 2.934-.867 4.26-1.359 2.482-2.344 3.467c-.985.985-2.14 1.766-3.467 2.344s-2.747.867-4.26.867h-1.563z"/>
  </g>
</svg>
